<svg width="148" height="24" viewBox="0 0 148 24" fill="none" xmlns="http://www.w3.org/2000/svg">
<rect width="24" height="24" rx="5" fill="#F3F4FB"/>
<g clip-path="url(#clip0_1_21)">
<path d="M11.5809 8.42904C11.4234 7.07949 11.2572 5.65458 11.2572 4H12.7428C12.7428 5.63599 12.5774 7.0591 12.4201 8.41016C12.292 9.5112 12.1694 10.5644 12.1466 11.646C12.8926 10.8679 13.5452 10.0428 14.2288 9.17852C15.0716 8.11292 15.9617 6.98778 17.1316 5.81786L18.1822 6.86842C17.0253 8.02524 15.9019 8.91444 14.8354 9.75864L14.8344 9.7594C13.9656 10.4471 13.1346 11.105 12.354 11.8534C13.4316 11.8306 14.4764 11.7087 15.5709 11.581C16.9204 11.4234 18.3454 11.2572 20 11.2572V12.7428C18.3641 12.7428 16.941 12.5773 15.59 12.4201L15.589 12.42C14.4882 12.2919 13.4353 12.1694 12.354 12.1466C13.1316 12.8921 13.9562 13.5444 14.82 14.2275L14.8213 14.2286C15.887 15.0716 17.0122 15.9616 18.1822 17.1316L17.1316 18.1822C15.9748 17.0254 15.0856 15.902 14.2415 14.8356L14.2395 14.8328L14.2378 14.8306C13.551 13.9632 12.894 13.1335 12.1466 12.354C12.1694 13.4356 12.292 14.4888 12.4201 15.5898C12.5774 16.9409 12.7428 18.364 12.7428 20H11.2572C11.2572 18.3454 11.4234 16.9205 11.5809 15.571L11.5812 15.5688C11.7088 14.4751 11.8306 13.4309 11.8534 12.354C11.106 13.1335 10.449 13.9632 9.76216 14.8306L9.76048 14.8328L9.75848 14.8356C8.9144 15.902 8.02524 17.0254 6.86842 18.1822L5.81786 17.1316C6.98784 15.9616 8.11304 15.0716 9.17868 14.2286L9.18004 14.2275C10.0438 13.5444 10.8684 12.8921 11.646 12.1466C10.5644 12.1695 9.51116 12.292 8.41004 12.4201C7.05904 12.5773 5.63594 12.7428 4 12.7428V11.2572C5.65458 11.2572 7.07958 11.4234 8.42912 11.581C9.52356 11.7087 10.5684 11.8306 11.646 11.8534C10.8651 11.1047 10.0337 10.4466 9.16464 9.75864C8.09812 8.91444 6.97466 8.02524 5.81786 6.86842L6.86842 5.81786C8.03828 6.98778 8.92836 8.11292 9.7712 9.17852C10.4548 10.0428 11.1074 10.8678 11.8534 11.6459C11.8306 10.5691 11.7088 9.52492 11.5812 8.43124L11.5809 8.42904Z" fill="#7000FD"/>
</g>
<path d="M31.2642 19V4.45455H34.3395V10.8679H34.5312L39.7656 4.45455H43.4517L38.054 10.9673L43.5156 19H39.8366L35.8523 13.0199L34.3395 14.8665V19H31.2642ZM48.1246 19.2131C47.0214 19.2131 46.0674 18.9787 45.2624 18.5099C44.4622 18.0365 43.8443 17.3783 43.4087 16.5355C42.9731 15.688 42.7553 14.7055 42.7553 13.5881C42.7553 12.4612 42.9731 11.4763 43.4087 10.6335C43.8443 9.78598 44.4622 9.12784 45.2624 8.65909C46.0674 8.18561 47.0214 7.94886 48.1246 7.94886C49.2279 7.94886 50.1796 8.18561 50.9798 8.65909C51.7847 9.12784 52.4049 9.78598 52.8406 10.6335C53.2762 11.4763 53.494 12.4612 53.494 13.5881C53.494 14.7055 53.2762 15.688 52.8406 16.5355C52.4049 17.3783 51.7847 18.0365 50.9798 18.5099C50.1796 18.9787 49.2279 19.2131 48.1246 19.2131ZM48.1388 16.8693C48.6407 16.8693 49.0598 16.7273 49.396 16.4432C49.7321 16.1544 49.9854 15.7614 50.1559 15.2642C50.3311 14.767 50.4187 14.2012 50.4187 13.5668C50.4187 12.9323 50.3311 12.3665 50.1559 11.8693C49.9854 11.3722 49.7321 10.9792 49.396 10.6903C49.0598 10.4015 48.6407 10.2571 48.1388 10.2571C47.6322 10.2571 47.2061 10.4015 46.8604 10.6903C46.5195 10.9792 46.2615 11.3722 46.0863 11.8693C45.9158 12.3665 45.8306 12.9323 45.8306 13.5668C45.8306 14.2012 45.9158 14.767 46.0863 15.2642C46.2615 15.7614 46.5195 16.1544 46.8604 16.4432C47.2061 16.7273 47.6322 16.8693 48.1388 16.8693ZM63.538 11.2017L60.7681 11.3722C60.7208 11.1354 60.619 10.9223 60.4627 10.733C60.3065 10.5388 60.1005 10.3849 59.8448 10.2713C59.5939 10.1529 59.2932 10.0938 58.9428 10.0938C58.4741 10.0938 58.0787 10.1932 57.7567 10.392C57.4348 10.5862 57.2738 10.8466 57.2738 11.1733C57.2738 11.4337 57.378 11.6539 57.5863 11.8338C57.7946 12.0137 58.1521 12.1581 58.6587 12.267L60.6332 12.6648C61.6938 12.8826 62.4845 13.233 63.0053 13.7159C63.5262 14.1989 63.7866 14.8333 63.7866 15.6193C63.7866 16.3343 63.5759 16.9616 63.1545 17.5014C62.7378 18.0412 62.1649 18.4626 61.4357 18.7656C60.7113 19.0639 59.8756 19.2131 58.9286 19.2131C57.4845 19.2131 56.3339 18.9124 55.4769 18.3111C54.6246 17.705 54.1251 16.8812 53.9783 15.8395L56.9542 15.6832C57.0442 16.1236 57.262 16.4598 57.6076 16.6918C57.9532 16.919 58.396 17.0327 58.9357 17.0327C59.466 17.0327 59.8922 16.9309 60.2141 16.7273C60.5408 16.5189 60.7066 16.2514 60.7113 15.9247C60.7066 15.6501 60.5906 15.4252 60.3633 15.25C60.136 15.0701 59.7856 14.9328 59.3121 14.8381L57.4229 14.4616C56.3576 14.2486 55.5645 13.8793 55.0437 13.3537C54.5276 12.8281 54.2695 12.1581 54.2695 11.3438C54.2695 10.643 54.4589 10.0393 54.8377 9.53267C55.2212 9.02604 55.7586 8.63542 56.4499 8.3608C57.146 8.08617 57.9603 7.94886 58.8931 7.94886C60.271 7.94886 61.3552 8.24006 62.146 8.82244C62.9414 9.40483 63.4054 10.1979 63.538 11.2017ZM70.4943 8.09091V10.3636H63.9247V8.09091H70.4943ZM65.4162 5.47727H68.4418V15.6477C68.4418 15.9271 68.4844 16.1449 68.5696 16.3011C68.6548 16.4527 68.7732 16.5592 68.9247 16.6207C69.081 16.6823 69.2609 16.7131 69.4645 16.7131C69.6065 16.7131 69.7486 16.7012 69.8906 16.6776C70.0327 16.6491 70.1416 16.6278 70.2173 16.6136L70.6932 18.8651C70.5417 18.9124 70.3286 18.9669 70.054 19.0284C69.7794 19.0947 69.4455 19.1349 69.0526 19.1491C68.3234 19.1776 67.6842 19.0805 67.1349 18.858C66.5904 18.6354 66.1667 18.2898 65.8636 17.821C65.5606 17.3523 65.4115 16.7604 65.4162 16.0455V5.47727ZM75.1509 19V4.45455H78.2262V10.8679H78.418L83.6523 4.45455H87.3384L81.9407 10.9673L87.4023 19H83.7234L79.739 13.0199L78.2262 14.8665V19H75.1509ZM94.1953 14.3551V8.09091H97.2209V19H94.3161V17.0185H94.2024C93.9562 17.6577 93.5466 18.1714 92.9737 18.5597C92.4055 18.9479 91.7119 19.142 90.8928 19.142C90.1636 19.142 89.522 18.9763 88.968 18.6449C88.4141 18.3134 87.9808 17.8423 87.6683 17.2315C87.3606 16.6207 87.2043 15.8892 87.1996 15.0369V8.09091H90.2251V14.4972C90.2299 15.1411 90.4027 15.6501 90.7436 16.0241C91.0845 16.3982 91.5414 16.5852 92.1143 16.5852C92.4789 16.5852 92.8198 16.5024 93.1371 16.3366C93.4543 16.1662 93.71 15.9152 93.9041 15.5838C94.103 15.2524 94.2 14.8428 94.1953 14.3551ZM107.718 11.2017L104.948 11.3722C104.9 11.1354 104.799 10.9223 104.642 10.733C104.486 10.5388 104.28 10.3849 104.025 10.2713C103.774 10.1529 103.473 10.0938 103.123 10.0938C102.654 10.0938 102.258 10.1932 101.936 10.392C101.614 10.5862 101.453 10.8466 101.453 11.1733C101.453 11.4337 101.558 11.6539 101.766 11.8338C101.974 12.0137 102.332 12.1581 102.838 12.267L104.813 12.6648C105.873 12.8826 106.664 13.233 107.185 13.7159C107.706 14.1989 107.966 14.8333 107.966 15.6193C107.966 16.3343 107.756 16.9616 107.334 17.5014C106.917 18.0412 106.345 18.4626 105.615 18.7656C104.891 19.0639 104.055 19.2131 103.108 19.2131C101.664 19.2131 100.514 18.9124 99.6566 18.3111C98.8043 17.705 98.3048 16.8812 98.158 15.8395L101.134 15.6832C101.224 16.1236 101.442 16.4598 101.787 16.6918C102.133 16.919 102.576 17.0327 103.115 17.0327C103.646 17.0327 104.072 16.9309 104.394 16.7273C104.721 16.5189 104.886 16.2514 104.891 15.9247C104.886 15.6501 104.77 15.4252 104.543 15.25C104.316 15.0701 103.965 14.9328 103.492 14.8381L101.603 14.4616C100.537 14.2486 99.7442 13.8793 99.2234 13.3537C98.7073 12.8281 98.4492 12.1581 98.4492 11.3438C98.4492 10.643 98.6386 10.0393 99.0174 9.53267C99.4009 9.02604 99.9383 8.63542 100.63 8.3608C101.326 8.08617 102.14 7.94886 103.073 7.94886C104.451 7.94886 105.535 8.24006 106.326 8.82244C107.121 9.40483 107.585 10.1979 107.718 11.2017ZM115.867 14.3551V8.09091H118.893V19H115.988V17.0185H115.874C115.628 17.6577 115.219 18.1714 114.646 18.5597C114.077 18.9479 113.384 19.142 112.565 19.142C111.835 19.142 111.194 18.9763 110.64 18.6449C110.086 18.3134 109.653 17.8423 109.34 17.2315C109.032 16.6207 108.876 15.8892 108.871 15.0369V8.09091H111.897V14.4972C111.902 15.1411 112.075 15.6501 112.415 16.0241C112.756 16.3982 113.213 16.5852 113.786 16.5852C114.151 16.5852 114.492 16.5024 114.809 16.3366C115.126 16.1662 115.382 15.9152 115.576 15.5838C115.775 15.2524 115.872 14.8428 115.867 14.3551ZM120.313 19V8.09091H123.196V10.0156H123.324C123.551 9.37642 123.93 8.87216 124.461 8.50284C124.991 8.13352 125.625 7.94886 126.364 7.94886C127.112 7.94886 127.749 8.13589 128.275 8.50994C128.8 8.87926 129.15 9.38116 129.326 10.0156H129.439C129.662 9.39062 130.064 8.8911 130.647 8.51705C131.234 8.13826 131.927 7.94886 132.728 7.94886C133.746 7.94886 134.572 8.2732 135.206 8.92188C135.846 9.56581 136.165 10.4796 136.165 11.6634V19H133.147V12.2599C133.147 11.6539 132.986 11.1993 132.664 10.8963C132.342 10.5933 131.939 10.4418 131.456 10.4418C130.907 10.4418 130.479 10.617 130.171 10.9673C129.863 11.313 129.709 11.7699 129.709 12.3381V19H126.776V12.196C126.776 11.661 126.622 11.2348 126.314 10.9176C126.011 10.6004 125.611 10.4418 125.114 10.4418C124.778 10.4418 124.475 10.527 124.205 10.6974C123.94 10.8632 123.729 11.0975 123.573 11.4006C123.417 11.6989 123.338 12.0492 123.338 12.4517V19H120.313ZM140.666 19.206C139.97 19.206 139.35 19.0852 138.805 18.8438C138.261 18.5975 137.83 18.2353 137.512 17.7571C137.2 17.2741 137.044 16.6728 137.044 15.9531C137.044 15.3471 137.155 14.8381 137.377 14.4261C137.6 14.0142 137.903 13.6828 138.287 13.4318C138.67 13.1809 139.106 12.9915 139.593 12.8636C140.086 12.7358 140.602 12.6458 141.142 12.5938C141.776 12.5275 142.288 12.4659 142.676 12.4091C143.064 12.3475 143.346 12.2576 143.521 12.1392C143.696 12.0208 143.784 11.8456 143.784 11.6136V11.571C143.784 11.1212 143.642 10.7732 143.358 10.527C143.078 10.2808 142.681 10.1577 142.164 10.1577C141.62 10.1577 141.187 10.2784 140.865 10.5199C140.543 10.7566 140.33 11.0549 140.225 11.4148L137.427 11.1875C137.569 10.5246 137.849 9.9517 138.265 9.46875C138.682 8.98106 139.219 8.60701 139.877 8.34659C140.54 8.08144 141.307 7.94886 142.179 7.94886C142.785 7.94886 143.365 8.01989 143.919 8.16193C144.477 8.30398 144.972 8.52415 145.403 8.82244C145.839 9.12074 146.182 9.50426 146.433 9.97301C146.684 10.437 146.809 10.9934 146.809 11.642V19H143.94V17.4872H143.855C143.68 17.8281 143.445 18.1288 143.152 18.3892C142.858 18.6449 142.505 18.8461 142.093 18.9929C141.681 19.1349 141.206 19.206 140.666 19.206ZM141.532 17.1179C141.977 17.1179 142.37 17.0303 142.711 16.8551C143.052 16.6752 143.32 16.4337 143.514 16.1307C143.708 15.8277 143.805 15.4844 143.805 15.1009V13.9432C143.71 14.0047 143.58 14.0616 143.414 14.1136C143.253 14.161 143.071 14.206 142.868 14.2486C142.664 14.2865 142.46 14.322 142.257 14.3551C142.053 14.3835 141.868 14.4096 141.703 14.4332C141.348 14.4853 141.038 14.5682 140.772 14.6818C140.507 14.7955 140.301 14.9493 140.154 15.1435C140.008 15.3329 139.934 15.5696 139.934 15.8537C139.934 16.2656 140.083 16.5805 140.382 16.7983C140.685 17.0114 141.068 17.1179 141.532 17.1179Z" fill="#7000FD"/>
<defs>
<clipPath id="clip0_1_21">
<rect width="16" height="16" fill="white" transform="translate(4 4)"/>
</clipPath>
</defs>
</svg>
